<?xml version="1.0" encoding="UTF-8"?>
<svg version="1.1" xmlns="http://www.w3.org/2000/svg" width="500" height="500">
<path d="M0 0 C2.2285277 -0.00711802 4.4570536 -0.01481935 6.68557739 -0.02307129 C11.33682359 -0.03645079 15.98790022 -0.0381141 20.63916016 -0.03222656 C26.55864493 -0.02633309 32.47730882 -0.05693938 38.39663506 -0.09734344 C42.99358396 -0.12336446 47.59033885 -0.12608491 52.18735123 -0.12245178 C54.36794219 -0.12412918 56.54854348 -0.1336363 58.72906113 -0.15159607 C78.4493655 -0.29619196 96.80177114 2.96127338 112.8828125 15.46875 C112.8828125 16.12875 112.8828125 16.78875 112.8828125 17.46875 C113.46546875 17.7265625 114.048125 17.984375 114.6484375 18.25 C117.0631028 19.56709017 118.70021427 21.01963384 120.6328125 22.96875 C121.24640625 23.5771875 121.86 24.185625 122.4921875 24.8125 C123.8828125 26.46875 123.8828125 26.46875 123.8828125 28.46875 C124.5428125 28.46875 125.2028125 28.46875 125.8828125 28.46875 C138.65576751 45.95049857 142.03933762 63.92908306 142.05078125 85.1796875 C142.05400294 86.59778882 142.05736766 88.01588982 142.06086731 89.43399048 C142.06682363 92.39415252 142.06871078 95.35428552 142.06811523 98.31445312 C142.06801369 102.07863712 142.08167328 105.84263217 142.09888744 109.60677147 C142.11008841 112.53242829 142.11203199 115.45804053 142.11150551 118.38371658 C142.11267318 119.77017494 142.11702538 121.15663491 142.12483788 122.54307175 C142.21656379 140.4973442 138.78764636 158.71838279 127.8828125 173.46875 C127.2228125 173.46875 126.5628125 173.46875 125.8828125 173.46875 C125.63402344 174.05140625 125.38523437 174.6340625 125.12890625 175.234375 C123.70709691 177.78382622 122.14131939 179.30491159 119.9453125 181.21875 C119.25566406 181.83234375 118.56601562 182.4459375 117.85546875 183.078125 C115.8828125 184.46875 115.8828125 184.46875 112.8828125 184.46875 C112.8828125 185.12875 112.8828125 185.78875 112.8828125 186.46875 C111.8928125 186.46875 110.9028125 186.46875 109.8828125 186.46875 C109.89328613 187.38164795 109.90375977 188.2945459 109.91455078 189.23510742 C109.94872531 192.63633775 109.97375634 196.03738442 109.99267578 199.4387207 C110.00270602 200.90815112 110.01633351 202.37756171 110.03369141 203.84692383 C110.05807148 205.96440537 110.06932536 208.08162199 110.078125 210.19921875 C110.08859863 211.47176514 110.09907227 212.74431152 110.10986328 214.05541992 C109.89223478 217.32710171 109.29783875 219.53832366 107.8828125 222.46875 C102.3993732 222.82606685 99.41632018 222.09091263 94.7578125 219.21875 C94.16057373 218.87465088 93.56333496 218.53055176 92.94799805 218.17602539 C89.30243351 216.05745183 85.90675412 213.76195023 82.53515625 211.23046875 C68.19080008 201.03242321 55.25324275 201.75075502 38.53695679 202.9937439 C28.97559297 203.67339981 19.41626416 203.67375456 9.83468628 203.65808105 C6.90463084 203.65630122 3.97514738 203.67297336 1.04516602 203.69238281 C-23.28245054 203.77148907 -48.20634975 201.63397195 -67.1171875 184.46875 C-67.1171875 183.80875 -67.1171875 183.14875 -67.1171875 182.46875 C-67.7771875 182.46875 -68.4371875 182.46875 -69.1171875 182.46875 C-69.1171875 181.80875 -69.1171875 181.14875 -69.1171875 180.46875 C-69.7771875 180.46875 -70.4371875 180.46875 -71.1171875 180.46875 C-72.99676551 178.11095408 -74.72891132 175.76429896 -76.4296875 173.28125 C-76.925896 172.55744141 -77.42210449 171.83363281 -77.93334961 171.08789062 C-82.10391579 164.82207051 -84.92515168 158.6954617 -87.1171875 151.46875 C-87.34792969 150.74429688 -87.57867187 150.01984375 -87.81640625 149.2734375 C-90.56380828 139.64778782 -90.30805672 129.15907671 -90.50390625 119.234375 C-90.52943069 117.99814392 -90.55495514 116.76191284 -90.58125305 115.48822021 C-90.63297325 112.88639583 -90.68243184 110.2845256 -90.72973633 107.68261719 C-90.80421336 103.74382538 -90.89507413 99.80562153 -90.98632812 95.8671875 C-91.47786802 71.74139249 -89.88755062 51.12429468 -76.1171875 30.46875 C-75.4571875 30.46875 -74.7971875 30.46875 -74.1171875 30.46875 C-73.4571875 28.81875 -72.7971875 27.16875 -72.1171875 25.46875 C-71.4571875 25.46875 -70.7971875 25.46875 -70.1171875 25.46875 C-69.8696875 24.85 -69.6221875 24.23125 -69.3671875 23.59375 C-67.91090111 21.11806313 -66.73906244 20.51749998 -64.1171875 19.46875 C-64.1171875 18.80875 -64.1171875 18.14875 -64.1171875 17.46875 C-44.63955775 2.60501156 -23.75204648 -0.00929581 0 0 Z M-19.1171875 39.46875 C-32.06767988 51.75711194 -39.93385492 67.95963014 -40.6171875 85.96875 C-40.21901383 97.13134278 -36.75014578 107.86589731 -31.1171875 117.46875 C-30.74207031 118.10941406 -30.36695313 118.75007813 -29.98046875 119.41015625 C-28.8667144 121.25321926 -28.8667144 121.25321926 -27.1171875 123.46875 C-26.4571875 123.46875 -25.7971875 123.46875 -25.1171875 123.46875 C-24.8490625 124.04625 -24.5809375 124.62375 -24.3046875 125.21875 C-23.08789561 127.52425043 -21.81384871 129.48931192 -20.1171875 131.46875 C-19.4571875 131.46875 -18.7971875 131.46875 -18.1171875 131.46875 C-17.4571875 133.11875 -16.7971875 134.76875 -16.1171875 136.46875 C-15.4571875 136.46875 -14.7971875 136.46875 -14.1171875 136.46875 C-13.83746094 137.35175781 -13.55773437 138.23476562 -13.26953125 139.14453125 C-12.24013894 142.11406637 -11.02383181 144.8214036 -9.6796875 147.65625 C-7.03050912 153.8635624 -6.02112492 159.9686535 -5.19360352 166.61791992 C-4.15606584 174.61473529 -2.45853956 181.01223776 3.8828125 186.46875 C4.7696875 187.335 5.6565625 188.20125 6.5703125 189.09375 C13.38351062 194.60340256 22.45893398 195.31702868 30.8828125 194.46875 C39.16745404 193.09370576 47.25184476 190.26269274 52.48046875 183.359375 C55.81131184 177.72704558 57.4243325 171.98220384 58.265625 165.53515625 C60.35377855 149.72213894 66.6636502 137.4613407 76.9453125 125.40625 C88.68070011 111.5695335 94.04498545 96.697648 92.8828125 78.46875 C91.60443642 68.85926202 88.69073044 60.85240591 83.8828125 52.46875 C83.41101563 51.63601562 82.93921875 50.80328125 82.453125 49.9453125 C81.34162733 48.07089335 80.12322987 46.26046398 78.8828125 44.46875 C78.2228125 44.46875 77.5628125 44.46875 76.8828125 44.46875 C76.8828125 43.80875 76.8828125 43.14875 76.8828125 42.46875 C76.2228125 42.46875 75.5628125 42.46875 74.8828125 42.46875 C74.8828125 41.80875 74.8828125 41.14875 74.8828125 40.46875 C74.2228125 40.46875 73.5628125 40.46875 72.8828125 40.46875 C72.8828125 39.80875 72.8828125 39.14875 72.8828125 38.46875 C71.02023394 36.91710927 69.18522165 35.528572 67.1953125 34.15625 C66.61313965 33.75398193 66.0309668 33.35171387 65.43115234 32.93725586 C59.61820223 29.06585919 53.51648647 26.62242223 46.8828125 24.46875 C45.7278125 24.05625 44.5728125 23.64375 43.3828125 23.21875 C20.42185418 18.29854465 -1.78260566 23.52093471 -19.1171875 39.46875 Z " fill="#A63364" transform="translate(225.1171875,86.53125)"/>
<path d="M0 0 C0.33 0 0.66 0 1 0 C1.21914062 0.81082031 1.43828125 1.62164062 1.6640625 2.45703125 C3.65686082 9.41562375 6.06878558 15.5097759 9.73046875 21.7578125 C11 24 11 24 12 27 C12.66 27 13.32 27 14 27 C19 32.47619048 19 32.47619048 19 35 C19.66 35 20.32 35 21 35 C21.99 37.475 21.99 37.475 23 40 C23.66 40 24.32 40 25 40 C25.96345444 41.87237371 26.92053102 43.7480299 27.875 45.625 C28.40867187 46.66914063 28.94234375 47.71328125 29.4921875 48.7890625 C32.72801425 55.67986455 33.76610671 62.36934588 34.76757812 69.8359375 C35.93749015 77.90251324 37.57141934 84.48978801 44 90 C45.0828125 91.051875 45.0828125 91.051875 46.1875 92.125 C52.36882999 96.24588666 59.71914897 97.32584713 67 98 C66.34 98.66 65.68 99.32 65 100 C64.83312552 102.58354218 64.83312552 102.58354218 65 105 C65.66 104.67 66.32 104.34 67 104 C69.32416296 103.91413191 71.65083307 103.89288957 73.9765625 103.90234375 C75.00443375 103.90446617 75.00443375 103.90446617 76.05307007 103.90663147 C78.24375761 103.91223325 80.4343433 103.92478594 82.625 103.9375 C84.10937352 103.94251478 85.59374865 103.94707772 87.078125 103.95117188 C90.71878315 103.96220323 94.35938164 103.97946901 98 104 C97.67 104.66 97.34 105.32 97 106 C81.16091326 106.831541 65.32855053 107.12913456 49.4697876 107.17724609 C47.47363823 107.18399622 45.47749702 107.19415994 43.48138428 107.20800781 C18.08193625 107.37008998 -8.1475939 106.0198763 -28 88 C-28 87.34 -28 86.68 -28 86 C-28.66 86 -29.32 86 -30 86 C-30 85.34 -30 84.68 -30 84 C-30.66 84 -31.32 84 -32 84 C-33.87957801 81.64220408 -35.61172382 79.29554896 -37.3125 76.8125 C-37.8087085 76.08869141 -38.30491699 75.36488281 -38.81616211 74.61914062 C-42.98672829 68.35332051 -45.80796418 62.2267117 -48 55 C-48.23074219 54.27554688 -48.46148437 53.55109375 -48.69921875 52.8046875 C-51.81958264 41.87234877 -51.12559498 30.05848289 -51.0625 18.8125 C-51.041875 13.594375 -51.02125 8.37625 -51 3 C-34.17 3 -17.34 3 0 3 C0 2.01 0 1.02 0 0 Z " fill="#E15C41" transform="translate(186,183)"/>
<path d="M0 0 C2.34504348 0.01507597 4.69009634 0.02875921 7.03515625 0.04101562 C12.7321966 0.07121195 18.4279109 0.12997517 24.125 0.1875 C24.125 7.4475 24.125 14.7075 24.125 22.1875 C22.02125 22.290625 19.9175 22.39375 17.75 22.5 C-1.02934916 23.89525285 -16.55072054 33.22643013 -28.7734375 47.37109375 C-40.69444913 63.34702198 -41.875 79.44472649 -41.875 99.1875 C-58.705 99.1875 -75.535 99.1875 -92.875 99.1875 C-95.16774637 73.96728994 -93.19067078 51.66100618 -78.875 30.1875 C-78.215 30.1875 -77.555 30.1875 -76.875 30.1875 C-76.215 28.5375 -75.555 26.8875 -74.875 25.1875 C-74.215 25.1875 -73.555 25.1875 -72.875 25.1875 C-72.6275 24.56875 -72.38 23.95 -72.125 23.3125 C-70.66871361 20.83681313 -69.49687494 20.23624998 -66.875 19.1875 C-66.875 18.5275 -66.875 17.8675 -66.875 17.1875 C-46.41644632 1.57520041 -24.86576532 -0.27925249 0 0 Z " fill="#308B89" transform="translate(227.875,86.8125)"/>
<path d="M0 0 C7.11256728 -0.12486951 14.22447746 -0.21493382 21.33789062 -0.2746582 C23.75076431 -0.29959123 26.16356415 -0.33355028 28.57617188 -0.37719727 C49.67337944 -0.74893496 68.69642309 1.54166241 86 15 C86 15.66 86 16.32 86 17 C86.87398437 17.38671875 86.87398437 17.38671875 87.765625 17.78125 C90.1802903 19.09834017 91.81740177 20.55088384 93.75 22.5 C94.36359375 23.1084375 94.9771875 23.716875 95.609375 24.34375 C97 26 97 26 97 28 C97.66 28 98.32 28 99 28 C111.87941295 45.6274526 115.17967959 63.67851943 115.09765625 85.09765625 C115.09578753 86.54210867 115.09436577 87.98656173 115.09336853 89.43101501 C115.08957909 93.20386554 115.07977997 96.97667661 115.06866455 100.74951172 C115.05837296 104.61099718 115.05385443 108.47248911 115.04882812 112.33398438 C115.03815394 119.88934076 115.02112128 127.44466482 115 135 C114.67 135 114.34 135 114 135 C114 123.12 114 111.24 114 99 C97.5 99 81 99 64 99 C64.33 96.03 64.66 93.06 65 90 C66.1208639 73.38103723 61.29412745 59.58372474 52 46 C52 45.34 52 44.68 52 44 C51.34 44 50.68 44 50 44 C50 43.34 50 42.68 50 42 C49.34 42 48.68 42 48 42 C48 41.34 48 40.68 48 40 C47.34 40 46.68 40 46 40 C46 39.34 46 38.68 46 38 C45.42121094 37.72800781 44.84242188 37.45601562 44.24609375 37.17578125 C42.01130655 36.00591873 40.10029465 34.66988805 38.0625 33.1875 C26.71743519 25.51786115 13.30683783 22.92057453 0 21 C0 14.07 0 7.14 0 0 Z " fill="#EE8F18" transform="translate(252,87)"/>
<path d="M0 0 C8.99144652 6.82636733 13.47323373 13.4197012 17 24 C18.19840354 35.9673488 17.67261398 45.51779649 10.2734375 55.27734375 C6.67870164 59.60434062 2.70959169 63.12744793 -1.6875 66.625 C-8.47119339 72.08390009 -11.80104467 75.49339759 -13.0625 84.25 C-13.20365234 85.77367187 -13.20365234 85.77367187 -13.34765625 87.328125 C-14 90 -14 90 -15.53515625 91.83984375 C-19.10119428 93.51831173 -22.5183107 93.39533267 -26.375 93.3125 C-27.1175 93.31572266 -27.86 93.31894531 -28.625 93.32226562 C-33.07418332 93.27903151 -36.89403217 92.90044022 -41 91 C-43.4819561 83.55413169 -41.63542879 76.16961139 -39 69 C-37.57416592 66.15281559 -36.09410666 63.41202384 -34 61 C-33.34 61 -32.68 61 -32 61 C-31.34 59.68 -30.68 58.36 -30 57 C-29.34 57 -28.68 57 -28 57 C-27.77183594 56.42121094 -27.54367188 55.84242188 -27.30859375 55.24609375 C-25.17933578 51.59139724 -21.76584745 49.58353648 -18.41015625 47.09765625 C-14.95434027 44.08992014 -13.22255867 41.64082473 -12.6015625 37.0625 C-12.61316406 35.5465625 -12.61316406 35.5465625 -12.625 34 C-12.61726563 32.989375 -12.60953125 31.97875 -12.6015625 30.9375 C-13.21047449 26.4482665 -14.73773924 23.97277094 -18.31640625 21.21484375 C-23.09319053 19.05242758 -27.87044533 19.3952964 -33 20 C-36.45264573 21.45374557 -38.19189219 22.46692305 -39.94921875 25.80078125 C-40.76610657 27.85296284 -41.40553262 29.87224176 -42 32 C-42.35578125 33.24136719 -42.7115625 34.48273438 -43.078125 35.76171875 C-43.53445312 37.36466797 -43.53445312 37.36466797 -44 39 C-48.12494151 39.05784708 -52.24977944 39.09354407 -56.375 39.125 C-57.550625 39.14175781 -58.72625 39.15851563 -59.9375 39.17578125 C-61.61972656 39.18544922 -61.61972656 39.18544922 -63.3359375 39.1953125 C-64.37282715 39.20578613 -65.4097168 39.21625977 -66.47802734 39.22705078 C-69 39 -69 39 -71 37 C-72.05324936 29.14961816 -70.95082105 22.79047368 -67 16 C-66.5875 15.24976563 -66.175 14.49953125 -65.75 13.7265625 C-59.99322127 4.14283428 -51.54486025 -1.67740722 -41 -5 C-40.35675781 -5.22429687 -39.71351563 -5.44859375 -39.05078125 -5.6796875 C-26.65062138 -9.47512427 -10.76497822 -7.31206068 0 0 Z " fill="#382D4D" transform="translate(278,133)"/>
<path d="M0 0 C0.79612198 -0.00807175 1.59224396 -0.01614349 2.41249084 -0.02445984 C4.10643321 -0.03832656 5.80040382 -0.04903707 7.49438477 -0.05688477 C10.05606548 -0.07394182 12.61640216 -0.11778196 15.17773438 -0.16210938 C24.97228785 -0.25677489 33.53024504 -0.20156743 41.5625 6.1328125 C47.07775744 13.02337587 50.91457921 20.20157254 49.9453125 29.2421875 C48.60964754 35.74242362 45.50878197 41.89412549 39.97265625 45.73828125 C37.16015625 47.23828125 37.16015625 47.23828125 35.16015625 47.23828125 C35.81242187 48.19347656 36.4646875 49.14867187 37.13671875 50.1328125 C49.05666718 67.70829414 49.05666718 67.70829414 51.16015625 73.23828125 C50.71411133 75.38012695 50.71411133 75.38012695 50.16015625 77.23828125 C46.86856309 77.29618478 43.57710022 77.33184386 40.28515625 77.36328125 C39.34800781 77.38003906 38.41085938 77.39679688 37.4453125 77.4140625 C36.54941406 77.42050781 35.65351563 77.42695313 34.73046875 77.43359375 C33.90305176 77.44406738 33.07563477 77.45454102 32.22314453 77.46533203 C30.16015625 77.23828125 30.16015625 77.23828125 28.16015625 75.23828125 C28.16015625 74.24828125 28.16015625 73.25828125 28.16015625 72.23828125 C27.50015625 72.23828125 26.84015625 72.23828125 26.16015625 72.23828125 C25.7734375 71.21347656 25.38671875 70.18867188 24.98828125 69.1328125 C24.46270841 67.77195426 23.93664041 66.41128718 23.41015625 65.05078125 C23.1575 64.37724609 22.90484375 63.70371094 22.64453125 63.00976562 C21.02972885 58.87183448 19.42980976 55.36091797 16.16015625 52.23828125 C14.18015625 51.90828125 12.20015625 51.57828125 10.16015625 51.23828125 C10.16015625 59.48828125 10.16015625 67.73828125 10.16015625 76.23828125 C1.16015625 77.36328125 1.16015625 77.36328125 -3.83984375 76.80078125 C-4.78859375 76.69894531 -5.73734375 76.59710938 -6.71484375 76.4921875 C-7.76671875 76.36650391 -7.76671875 76.36650391 -8.83984375 76.23828125 C-8.86296821 66.47677137 -8.88075936 56.71526795 -8.89165592 46.95373631 C-8.89688453 42.42154031 -8.90398176 37.88936298 -8.9152832 33.35717773 C-8.92611289 28.98705295 -8.93212076 24.61694617 -8.93472099 20.24680901 C-8.9365751 18.57577162 -8.94019543 16.90473528 -8.94557381 15.23370552 C-8.95278534 12.90130574 -8.95383465 10.56898132 -8.95336914 8.23657227 C-8.95696442 7.53886215 -8.96055969 6.84115204 -8.96426392 6.12229919 C-8.94873253 -1.02316367 -6.36172735 0.06080975 0 0 Z M10.16015625 17.23828125 C10.16015625 23.50828125 10.16015625 29.77828125 10.16015625 36.23828125 C15.44015625 35.57828125 20.72015625 34.91828125 26.16015625 34.23828125 C26.16015625 33.57828125 26.16015625 32.91828125 26.16015625 32.23828125 C26.82015625 32.23828125 27.48015625 32.23828125 28.16015625 32.23828125 C30.50565299 28.72003614 30.74007028 27.38052431 30.16015625 23.23828125 C27.6099126 20.13663356 25.98316378 18.51261709 22.16015625 17.23828125 C18.15632493 17.10428422 14.16742075 17.19519238 10.16015625 17.23828125 Z " fill="#382E4D" transform="translate(157.83984375,319.76171875)"/>
<path d="M0 0 C0.86818359 -0.04576172 1.73636719 -0.09152344 2.63085938 -0.13867188 C3.47068359 -0.15349609 4.31050781 -0.16832031 5.17578125 -0.18359375 C5.94446533 -0.2086499 6.71314941 -0.23370605 7.50512695 -0.25952148 C11.02433245 0.86446685 11.94141708 3.29665501 13.6875 6.4375 C14.94848633 9.47924805 14.94848633 9.47924805 16.01953125 12.69921875 C16.42204102 13.89111816 16.82455078 15.08301758 17.23925781 16.31103516 C17.65953255 17.58234773 18.07977937 18.85366954 18.5 20.125 C19.38282328 22.75262153 20.27162083 25.37821173 21.16015625 28.00390625 C21.37779633 28.64978699 21.5954364 29.29566772 21.81967163 29.96112061 C23.59075077 35.20161294 25.48373018 40.38796685 27.4375 45.5625 C29.83767365 51.96883549 32.04877239 58.41873782 34.125 64.9375 C34.38442383 65.74590332 34.64384766 66.55430664 34.91113281 67.38720703 C35.8852359 70.50045121 36.6875 73.15546209 36.6875 76.4375 C29.84205307 77.41542099 23.48331676 78.13645419 16.6875 76.4375 C15.3675 72.8075 14.0475 69.1775 12.6875 65.4375 C4.7675 65.4375 -3.1525 65.4375 -11.3125 65.4375 C-12.3025 68.4075 -13.2925 71.3775 -14.3125 74.4375 C-16.72688363 77.26778416 -17.93621354 77.40061778 -21.66015625 77.765625 C-22.88605469 77.73984375 -24.11195313 77.7140625 -25.375 77.6875 C-26.60347656 77.67203125 -27.83195312 77.6565625 -29.09765625 77.640625 C-32.3125 77.4375 -32.3125 77.4375 -35.3125 76.4375 C-34.88072656 71.5152828 -34.11450507 67.97236357 -32.12788391 63.41362 C-30.76282532 60.10533841 -29.71206334 56.70537951 -28.640625 53.29296875 C-28.13552833 51.71155287 -27.63031603 50.13017392 -27.125 48.54882812 C-26.34886639 46.10619014 -25.57450417 43.66301448 -24.80273438 41.21899414 C-21.26957431 30.05233677 -17.40098272 19.09207047 -13.0291748 8.22451782 C-12.39853441 6.6520255 -11.78437296 5.07294555 -11.17285156 3.49291992 C-9.20337226 -1.21225779 -4.53489313 0.09634571 0 0 Z M0.6875 26.4375 C-4.9373849 37.53003423 -4.9373849 37.53003423 -7.3125 49.4375 C-2.0325 49.4375 3.2475 49.4375 8.6875 49.4375 C7.17276781 41.45073028 4.51947448 34.03627122 1.6875 26.4375 C1.3575 26.4375 1.0275 26.4375 0.6875 26.4375 Z " fill="#392E4D" transform="translate(384.3125,319.5625)"/>
<path d="M0 0 C3.12482562 -0.08687496 6.24934246 -0.14034568 9.375 -0.1875 C10.70917969 -0.22520508 10.70917969 -0.22520508 12.0703125 -0.26367188 C13.34648437 -0.27817383 13.34648437 -0.27817383 14.6484375 -0.29296875 C15.82672119 -0.31653442 15.82672119 -0.31653442 17.02880859 -0.34057617 C17.67930176 -0.22818604 18.32979492 -0.1157959 19 0 C21.3762097 3.56431454 22.31190818 7.17277887 23.4375 11.25 C24.94945712 16.71593961 26.75488444 21.778937 29 27 C29.93543378 29.83171153 30.75376107 32.69236973 31.5625 35.5625 C31.97943847 37.02243005 32.39738931 38.48207139 32.81640625 39.94140625 C32.99631104 40.57763916 33.17621582 41.21387207 33.36157227 41.86938477 C34.17997279 44.60062048 35.0890645 47.29841459 36 50 C37.49458545 45.39632206 38.98784734 40.7922175 40.47998047 36.18774414 C40.98581801 34.62741014 41.49199247 33.06718531 41.99853516 31.50708008 C42.73432658 29.2406968 43.46897181 26.9739457 44.203125 24.70703125 C44.44357544 23.96574982 44.68402588 23.22446838 44.9317627 22.46072388 C46.74947899 16.83457373 48.46966204 11.18476906 50.13183594 5.51049805 C51 3 51 3 53 0 C54.97119141 -0.34057617 54.97119141 -0.34057617 57.3515625 -0.29296875 C58.62773437 -0.2784668 58.62773437 -0.2784668 59.9296875 -0.26367188 C60.81914062 -0.23853516 61.70859375 -0.21339844 62.625 -0.1875 C63.97078125 -0.16719727 63.97078125 -0.16719727 65.34375 -0.14648438 C67.56309789 -0.11106925 69.78125188 -0.06168461 72 0 C72.25080109 4.58220361 71.59205543 7.59256336 69.6875 11.75 C67.7186639 16.2367279 66.08272752 20.63692354 64.7734375 25.35546875 C62.39158207 33.49948958 59.47842139 41.4977526 56.72094727 49.51977539 C56.28272097 50.79610744 55.84554264 52.07279981 55.40942383 53.34985352 C47.81197759 75.5940112 47.81197759 75.5940112 45 77 C42.17725463 77.0984342 39.38471903 77.13898292 36.5625 77.125 C35.78583984 77.12886719 35.00917969 77.13273437 34.20898438 77.13671875 C30.88918828 77.13099989 28.17006494 77.05668831 25 76 C23.89453125 73.90234375 23.89453125 73.90234375 22.8125 70.9375 C22.379375 69.7515625 21.94625 68.565625 21.5 67.34375 C19.36114577 61.21622166 17.33716519 55.04932628 15.30737305 48.88500977 C11.42300337 37.13758028 7.22502654 25.5056277 3.01806641 13.87060547 C-0.27047236 4.5980302 -0.27047236 4.5980302 0 0 Z " fill="#3A304E" transform="translate(244,320)"/>
<path d="M0 0 C7.67536627 -0.02312821 15.35072896 -0.04091753 23.02612209 -0.05181217 C26.58977422 -0.05703995 30.15340257 -0.06413569 33.71704102 -0.07543945 C37.81006097 -0.08834176 41.9030558 -0.09322906 45.99609375 -0.09765625 C47.92418129 -0.10539818 47.92418129 -0.10539818 49.89122009 -0.11329651 C51.66294334 -0.11340981 51.66294334 -0.11340981 53.47045898 -0.11352539 C55.03932106 -0.11685631 55.03932106 -0.11685631 56.63987732 -0.12025452 C59 0 59 0 60 1 C60.15179378 3.30901696 60.22181122 5.62367069 60.25 7.9375 C60.27578125 9.20464844 60.3015625 10.47179687 60.328125 11.77734375 C60.21984375 12.84082031 60.1115625 13.90429688 60 15 C56.95318939 17.03120707 56.39881676 17.24659875 52.98828125 17.1953125 C52.23095703 17.18886719 51.47363281 17.18242187 50.69335938 17.17578125 C49.51483398 17.15064453 49.51483398 17.15064453 48.3125 17.125 C47.51521484 17.11597656 46.71792969 17.10695313 45.89648438 17.09765625 C43.930861 17.07411585 41.96539225 17.03824547 40 17 C40.00222061 17.70965912 40.00444122 18.41931824 40.00672913 19.15048218 C40.02674744 25.83098552 40.04198202 32.51148053 40.05181217 39.19200706 C40.05703579 42.62671562 40.06412401 46.06139943 40.07543945 49.49609375 C40.08836035 53.44270535 40.09323252 57.38930684 40.09765625 61.3359375 C40.10281754 62.57242035 40.10797882 63.8089032 40.11329651 65.08285522 C40.11337204 66.22388702 40.11344757 67.36491882 40.11352539 68.54052734 C40.115746 69.548685 40.11796661 70.55684265 40.12025452 71.59555054 C40 74 40 74 39 76 C33 77 33 77 20 76 C20 56.53 20 37.06 20 17 C14.06 17 8.12 17 2 17 C-1 14 -1 14 -1.328125 11.15234375 C-1.30234375 10.09144531 -1.2765625 9.03054688 -1.25 7.9375 C-1.23453125 6.87402344 -1.2190625 5.81054688 -1.203125 4.71484375 C-1 2 -1 2 0 0 Z " fill="#3A304F" transform="translate(82,320)"/>
<path d="M0 0 C0.79792969 0.00386719 1.59585937 0.00773437 2.41796875 0.01171875 C3.21589844 0.00785156 4.01382812 0.00398438 4.8359375 0 C10.79136108 0.01011108 10.79136108 0.01011108 11.91796875 1.13671875 C12.01289597 3.47925657 12.04356666 5.79217979 12.03149414 8.13500977 C12.03164017 8.86667358 12.03178619 9.5983374 12.03193665 10.35217285 C12.03123742 12.78168659 12.0234446 15.21112458 12.015625 17.640625 C12.01376085 19.32071389 12.01233694 21.00080332 12.01133728 22.68089294 C12.00751182 27.11145518 11.99768131 31.54198485 11.9866333 35.97253418 C11.97641978 40.49014851 11.97183979 45.00776809 11.96679688 49.52539062 C11.95605906 58.39584768 11.93898231 67.26628051 11.91796875 76.13671875 C9.48085261 76.33156813 7.04359477 76.51787053 4.60546875 76.69921875 C3.5700293 76.78333008 3.5700293 76.78333008 2.51367188 76.86914062 C-0.70715399 77.1025338 -2.9853047 77.16896093 -6.08203125 76.13671875 C-7.56145405 73.17787314 -7.20938831 70.52640035 -7.21142578 67.22436523 C-7.2131781 66.51366882 -7.21493042 65.80297241 -7.21673584 65.07073975 C-7.22114515 62.71640599 -7.21821991 60.36214705 -7.21484375 58.0078125 C-7.21551698 56.3763884 -7.21648716 54.7449644 -7.21774292 53.11354065 C-7.21921858 49.69295294 -7.21706927 46.27239132 -7.21240234 42.85180664 C-7.20670062 38.45761003 -7.20998769 34.06347443 -7.21597481 29.66928005 C-7.21958012 26.30051713 -7.21844205 22.93176879 -7.21584702 19.56300545 C-7.2151779 17.94221044 -7.21600565 16.32141413 -7.21832657 14.70062065 C-7.2208531 12.44027041 -7.21701274 10.18002047 -7.21142578 7.91967773 C-7.21063019 6.6310936 -7.20983459 5.34250946 -7.20901489 4.01487732 C-6.98093131 -1.15477053 -4.60076982 0.00781115 0 0 Z " fill="#382E4B" transform="translate(330.08203125,319.86328125)"/>
<path d="M0 0 C1.58206057 0.00667536 3.16410534 0.0186375 4.74609375 0.03515625 C5.55240234 0.03966797 6.35871094 0.04417969 7.18945312 0.04882812 C9.18753131 0.06065107 11.18557158 0.07858711 13.18359375 0.09765625 C14.65031077 3.03109028 14.3109343 5.62720535 14.31298828 8.90234375 C14.3147406 9.6016803 14.31649292 10.30101685 14.31829834 11.02154541 C14.32270798 13.33860743 14.31978198 15.65559342 14.31640625 17.97265625 C14.31707954 19.57926447 14.31804978 21.1858726 14.31930542 22.79248047 C14.32078119 26.16179371 14.31863171 29.53108046 14.31396484 32.90039062 C14.30826762 37.22498686 14.31154727 41.54952103 14.31753731 45.87411499 C14.32114617 49.19230621 14.32000283 52.51048266 14.31740952 55.82867432 C14.31674115 57.42352302 14.31756553 59.01837306 14.31988907 60.61322021 C14.32242091 62.83983936 14.31856748 65.06635718 14.31298828 67.29296875 C14.31219269 68.56156738 14.31139709 69.83016602 14.31057739 71.13720703 C14.18359375 74.09765625 14.18359375 74.09765625 13.18359375 76.09765625 C7.24359375 76.09765625 1.30359375 76.09765625 -4.81640625 76.09765625 C-4.83895818 66.33614225 -4.85732186 56.57464542 -4.86821842 46.81311131 C-4.87344703 42.28091531 -4.88054426 37.74873798 -4.8918457 33.21655273 C-4.90267539 28.84642795 -4.90868326 24.47632117 -4.91128349 20.10618401 C-4.9131376 18.43514662 -4.91675793 16.76411028 -4.92213631 15.09308052 C-4.92934784 12.76068074 -4.93039715 10.42835632 -4.92993164 8.09594727 C-4.93352692 7.39823715 -4.93712219 6.70052704 -4.94082642 5.98167419 C-4.92809874 0.12610283 -4.92809874 0.12610283 0 0 Z " fill="#382D4C" transform="translate(222.81640625,319.90234375)"/>
<path d="M0 0 C4.12761683 3.73451046 5.41366816 7.40256948 6 12.875 C5.47282825 17.79526965 4.30164121 21.80314886 0.625 25.25 C-4.65421161 28.21955653 -10.49427511 28.18037059 -16.375 27.375 C-20.29001084 25.37040682 -22.60205644 22.68564342 -24.8125 18.9375 C-25.8324184 14.29120506 -25.85803111 10.67155718 -24.1875 6.1875 C-18.3128441 -2.92834535 -9.40797114 -4.52976388 0 0 Z " fill="#382D4D" transform="translate(260.375,237.625)"/>
<path d="M0 0 C4.87994758 7.31992137 3.13019697 18.60014649 3.09765625 27.09765625 C3.09578753 28.54210867 3.09436577 29.98656173 3.09336853 31.43101501 C3.08957909 35.20386554 3.07977997 38.97667661 3.06866455 42.74951172 C3.05837296 46.61099718 3.05385443 50.47248911 3.04882812 54.33398438 C3.03815394 61.88934076 3.02112128 69.44466482 3 77 C2.67 77 2.34 77 2 77 C2 65.12 2 53.24 2 41 C-14.5 41 -31 41 -48 41 C-47.67 38.03 -47.34 35.06 -47 32 C-46.68858209 24.6084042 -47.09102535 17.33672394 -48 10 C-47.01 10.33 -46.02 10.66 -45 11 C-43.52067778 20.2457639 -43.23501567 29.7828596 -45 39 C-43.85789062 38.98839844 -42.71578125 38.97679687 -41.5390625 38.96484375 C-27.33905642 38.86974116 -13.18465307 39.37076102 1 40 C0.88138816 35.39168209 0.75711639 30.78356387 0.62768555 26.17553711 C0.58447661 24.60917264 0.54279209 23.04276533 0.50268555 21.47631836 C0.44464129 19.2197582 0.38104698 16.96341092 0.31640625 14.70703125 C0.29969376 14.01100296 0.28298126 13.31497467 0.26576233 12.59785461 C0.17839821 9.70557515 -0.00355232 6.98257203 -0.58227539 4.14331055 C-1 2 -1 2 0 0 Z " fill="#D88239" transform="translate(364,145)"/>
<path d="M0 0 C7.11256728 -0.12486951 14.22447746 -0.21493382 21.33789062 -0.2746582 C23.75076431 -0.29959123 26.16356415 -0.33355028 28.57617188 -0.37719727 C44.23269094 -0.65306877 57.86091446 -0.44516651 72 7 C71.34 7.66 70.68 8.32 70 9 C70 8.34 70 7.68 70 7 C69.32453125 6.95101562 68.6490625 6.90203125 67.953125 6.8515625 C67.06109375 6.77679688 66.1690625 6.70203125 65.25 6.625 C64.36828125 6.55539063 63.4865625 6.48578125 62.578125 6.4140625 C60.00933618 6.00149945 58.24158985 5.28839043 56 4 C56 4.66 56 5.32 56 6 C54.68 5.67 53.36 5.34 52 5 C52.66 5 53.32 5 54 5 C54 4.34 54 3.68 54 3 C36.84 2.67 19.68 2.34 2 2 C2.33 3.98 2.66 5.96 3 8 C2.96631714 10.10647419 2.86267189 12.21305177 2.6875 14.3125 C2.60886719 15.36050781 2.53023437 16.40851563 2.44921875 17.48828125 C2.30097656 18.31714844 2.15273437 19.14601563 2 20 C1.34 20.33 0.68 20.66 0 21 C0 14.07 0 7.14 0 0 Z " fill="#D2933A" transform="translate(252,87)"/>
<path d="M0 0 C0.33 0 0.66 0 1 0 C1.66 6.93 2.32 13.86 3 21 C18.18 21.33 33.36 21.66 49 22 C49 15.73 49 9.46 49 3 C49.33 3 49.66 3 50 3 C50.495 13.395 50.495 13.395 51 24 C34.17 24 17.34 24 0 24 C0 16.08 0 8.16 0 0 Z " fill="#517C74" transform="translate(135,162)"/>
<path d="M0 0 C0.33 0 0.66 0 1 0 C1.39832031 1.30324219 1.39832031 1.30324219 1.8046875 2.6328125 C2.15789062 3.78523437 2.51109375 4.93765625 2.875 6.125 C3.22304687 7.26195312 3.57109375 8.39890625 3.9296875 9.5703125 C4.91496533 12.72751664 5.94272536 15.86627606 7 19 C6.01 19.33 5.02 19.66 4 20 C3.505 16.535 3.505 16.535 3 13 C2.34 13 1.68 13 1 13 C0.34 10.03 -0.32 7.06 -1 4 C-17.17 4 -33.34 4 -50 4 C-50 14.56 -50 25.12 -50 36 C-50.33 36 -50.66 36 -51 36 C-51 25.11 -51 14.22 -51 3 C-34.17 3 -17.34 3 0 3 C0 2.01 0 1.02 0 0 Z " fill="#C87B65" transform="translate(186,183)"/>
<path d="M0 0 C4.87994758 7.31992137 3.13019697 18.60014649 3.09765625 27.09765625 C3.09578753 28.54210867 3.09436577 29.98656173 3.09336853 31.43101501 C3.08957909 35.20386554 3.07977997 38.97667661 3.06866455 42.74951172 C3.05837296 46.61099718 3.05385443 50.47248911 3.04882812 54.33398438 C3.03815394 61.88934076 3.02112128 69.44466482 3 77 C2.67 77 2.34 77 2 77 C1.97716446 76.13413773 1.95432892 75.26827545 1.93080139 74.37617493 C1.71467193 66.21014997 1.49440547 58.04424929 1.26950932 49.87846088 C1.15403787 45.68050579 1.04015785 41.48252018 0.92993164 37.28442383 C0.82346828 33.23188234 0.71280257 29.17947528 0.59924126 25.12712669 C0.55668368 23.58224716 0.51563199 22.03732536 0.4761219 20.49236488 C0.42045894 18.32591438 0.35940924 16.15967691 0.29711914 13.9934082 C0.26380997 12.76096878 0.23050079 11.52852936 0.19618225 10.25874329 C0.08134499 7.05513297 0.08134499 7.05513297 -0.58106995 4.18791199 C-1 2 -1 2 0 0 Z " fill="#D69667" transform="translate(364,145)"/>
<path d="M0 0 C1.29349365 0.00523682 2.5869873 0.01047363 3.91967773 0.01586914 C4.9496714 0.01799156 4.9496714 0.01799156 6.00047302 0.02015686 C8.20144949 0.0257706 10.40232557 0.03832532 12.60327148 0.05102539 C14.09220231 0.05603863 15.58113473 0.06060184 17.07006836 0.06469727 C20.72700223 0.07574446 24.38387707 0.09301826 28.04077148 0.11352539 C27.71077148 0.77352539 27.38077148 1.43352539 27.04077148 2.11352539 C2.71540673 3.39059006 -21.60888673 3.21537033 -45.95922852 3.11352539 C-45.95922852 2.78352539 -45.95922852 2.45352539 -45.95922852 2.11352539 C-44.69216064 2.08846924 -43.42509277 2.06341309 -42.11962891 2.03759766 C-37.43625073 1.94370543 -32.75302721 1.84344104 -28.06982422 1.74121094 C-26.03958748 1.69779298 -24.00931259 1.65612313 -21.97900391 1.61621094 C-19.06734701 1.55867393 -16.15588338 1.49493261 -13.24438477 1.42993164 C-11.8740786 1.4048629 -11.8740786 1.4048629 -10.47608948 1.37928772 C-6.58543849 1.28699436 -3.58362504 0.13747922 0 0 Z " fill="#CD93A2" transform="translate(255.959228515625,286.886474609375)"/>
<path d="M0 0 C1.32 0 2.64 0 4 0 C4.042721 1.66611905 4.04063832 3.33382885 4 5 C3 6 3 6 -0.87719727 6.11352539 C-2.60694167 6.11336621 -4.33669081 6.10766849 -6.06640625 6.09765625 C-6.97502914 6.0962413 -7.88365204 6.09482635 -8.81980896 6.09336853 C-11.73407221 6.08775193 -14.64825981 6.07519665 -17.5625 6.0625 C-19.53320202 6.05748714 -21.50390524 6.05292386 -23.47460938 6.04882812 C-28.31643559 6.03777711 -33.15820495 6.02050138 -38 6 C-34.16327717 3.44218478 -31.05464013 3.74693544 -26.61328125 3.8046875 C-25.79627243 3.8075174 -24.97926361 3.81034729 -24.13749695 3.81326294 C-21.52901541 3.82445459 -18.9208777 3.8495571 -16.3125 3.875 C-14.54362475 3.88503112 -12.77474412 3.89415674 -11.00585938 3.90234375 C-6.67044051 3.92439058 -2.33527855 3.9589133 2 4 C1.34 2.68 0.68 1.36 0 0 Z " fill="#C55A47" transform="translate(247,283)"/>
<path d="M0 0 C3.90604537 1.26682552 5.90166803 2.43283565 8 6 C9.86972228 10.92926784 9.38738216 15.83785352 7.75 20.75 C5.19393939 25.4969697 5.19393939 25.4969697 2 27 C-0.75 26.6875 -0.75 26.6875 -3 26 C-2.01 25.67 -1.02 25.34 0 25 C0.33 24.01 0.66 23.02 1 22 C1.99 21.67 2.98 21.34 4 21 C6.52226151 17.54848425 6.29598136 14.14373903 6 10 C5.11935073 7.64630193 5.11935073 7.64630193 4 6 C3.34 6 2.68 6 2 6 C1.34 4.02 0.68 2.04 0 0 Z " fill="#4D4355" transform="translate(257,237)"/>
<path d="M0 0 C0.33 0 0.66 0 1 0 C0.67 2.64 0.34 5.28 0 8 C0.66 8 1.32 8 2 8 C2 8.66 2 9.32 2 10 C2.99 10 3.98 10 5 10 C5.33 10.99 5.66 11.98 6 13 C6.99 13.33 7.98 13.66 9 14 C9 14.99 9 15.98 9 17 C10.98 17 12.96 17 15 17 C15 18.32 15 19.64 15 21 C9.71223057 20.66951441 5.75899378 17.51647805 2 14 C2 13.34 2 12.68 2 12 C1.34 12 0.68 12 0 12 C0 11.34 0 10.68 0 10 C-0.66 10 -1.32 10 -2 10 C-3.625 7.5 -3.625 7.5 -5 5 C-3.35 4.67 -1.7 4.34 0 4 C-0.33 3.01 -0.66 2.02 -1 1 C-0.67 0.67 -0.34 0.34 0 0 Z " fill="#DB7C66" transform="translate(156,257)"/>
<path d="M0 0 C0.66 0.33 1.32 0.66 2 1 C1.67 1.99 1.34 2.98 1 4 C0.34 3.67 -0.32 3.34 -1 3 C-1.268125 3.598125 -1.53625 4.19625 -1.8125 4.8125 C-3.42806924 7.78854859 -4.91773631 9.54085783 -8.0625 10.875 C-10.71177751 12.41329016 -11.10035344 14.15111923 -12 17 C-12.66 17 -13.32 17 -14 17 C-14 17.66 -14 18.32 -14 19 C-14.66 19 -15.32 19 -16 19 C-16 19.66 -16 20.32 -16 21 C-15.34 21.33 -14.68 21.66 -14 22 C-15.32 22.33 -16.64 22.66 -18 23 C-15.30382555 12.48491963 -8.52962293 6.18650517 0 0 Z " fill="#4B4457" transform="translate(227,132)"/>
<path d="M0 0 C4 0 4 0 5.75 1.375 C7 3 7 3 7 5 C7.66 5 8.32 5 9 5 C9.66 6.65 10.32 8.3 11 10 C11.99 9.67 12.98 9.34 14 9 C14.28875 10.134375 14.5775 11.26875 14.875 12.4375 C15.24625 13.613125 15.6175 14.78875 16 16 C16.66 16.33 17.32 16.66 18 17 C18.4140625 19.06640625 18.4140625 19.06640625 18.625 21.5625 C18.69976562 22.38878906 18.77453125 23.21507812 18.8515625 24.06640625 C18.90054687 24.70449219 18.94953125 25.34257812 19 26 C16.60549563 22.96743907 14.71390252 19.83346319 12.875 16.4375 C12.09769531 15.01244141 12.09769531 15.01244141 11.3046875 13.55859375 C10 11 10 11 9 8 C8.34 8 7.68 8 7 8 C7 7.34 7 6.68 7 6 C6.34 6 5.68 6 5 6 C5 5.34 5 4.68 5 4 C4.34 4 3.68 4 3 4 C3 3.34 3 2.68 3 2 C2.01 1.67 1.02 1.34 0 1 C0 0.67 0 0.34 0 0 Z " fill="#D99C4E" transform="translate(295,123)"/>
<path d="M0 0 C2 1.3125 2 1.3125 4 3 C4 3.99 4 4.98 4 6 C2.68 5.67 1.36 5.34 0 5 C-0.061875 5.556875 -0.12375 6.11375 -0.1875 6.6875 C-1.33412279 9.95096487 -3.51955157 11.64054906 -6 14 C-6.99 15.485 -6.99 15.485 -8 17 C-8.66 17 -9.32 17 -10 17 C-8.68018255 12.31812124 -6.80204328 8.99625079 -3.875 5.125 C-3.15054687 4.15820312 -2.42609375 3.19140625 -1.6796875 2.1953125 C-1.12539063 1.47085938 -0.57109375 0.74640625 0 0 Z " fill="#AC5074" transform="translate(299,214)"/>
<path d="M0 0 C0 0.33 0 0.66 0 1 C-1.14339844 1.04898438 -2.28679687 1.09796875 -3.46484375 1.1484375 C-4.95575473 1.22345189 -6.44663892 1.29900028 -7.9375 1.375 C-9.06961914 1.42140625 -9.06961914 1.42140625 -10.22460938 1.46875 C-12.15507395 1.5726315 -14.07942081 1.77895614 -16 2 C-16.33 2.66 -16.66 3.32 -17 4 C-20.88666756 5.71013373 -24.95031172 4.60745324 -29 4 C-29 3.34 -29 2.68 -29 2 C-19.34346884 -0.38222795 -9.86674975 -0.19538118 0 0 Z " fill="#609594" transform="translate(220,87)"/>
<path d="M0 0 C7.36072234 0.42465706 13.32137824 2.98348917 20 6 C19.34 6.66 18.68 7.32 18 8 C18 7.34 18 6.68 18 6 C16.98679687 5.92652344 16.98679687 5.92652344 15.953125 5.8515625 C14.61507813 5.73941406 14.61507813 5.73941406 13.25 5.625 C12.36828125 5.55539063 11.4865625 5.48578125 10.578125 5.4140625 C8.00933618 5.00149945 6.24158985 4.28839043 4 3 C4 3.66 4 4.32 4 5 C2.68 4.67 1.36 4.34 0 4 C0.66 4 1.32 4 2 4 C2 3.34 2 2.68 2 2 C1.34 1.34 0.68 0.68 0 0 Z " fill="#E99C3E" transform="translate(304,88)"/>
<path d="M0 0 C3.72006826 4.118647 6.30824355 8.71715318 8 14 C7.67 14.66 7.34 15.32 7 16 C5.0625 15.25 5.0625 15.25 3 14 C2.1875 12 2.1875 12 2 10 C2.33 9.34 2.66 8.68 3 8 C2.01 8.33 1.02 8.66 0 9 C0 6 0 3 0 0 Z " fill="#E7A147" transform="translate(354,121)"/>
<path d="M0 0 C0.66 0.66 1.32 1.32 2 2 C1.75 4.5625 1.75 4.5625 1 7 C0.01 7.495 0.01 7.495 -1 8 C-1.4125 8.845625 -1.825 9.69125 -2.25 10.5625 C-2.8275 11.366875 -3.405 12.17125 -4 13 C-7.1875 13.3125 -7.1875 13.3125 -10 13 C-8.71034824 11.62437146 -7.37310707 10.29233607 -6 9 C-5.34 9 -4.68 9 -4 9 C-3.71125 8.2575 -3.4225 7.515 -3.125 6.75 C-2.17697356 4.43260203 -1.15154089 2.22082885 0 0 Z " fill="#9C4869" transform="translate(280,263)"/>
<path d="M0 0 C5.61 0 11.22 0 17 0 C16.67 1.98 16.34 3.96 16 6 C15.34 5.67 14.68 5.34 14 5 C14.33 4.01 14.66 3.02 15 2 C13.62714844 2.12568359 13.62714844 2.12568359 12.2265625 2.25390625 C10.44378906 2.40666016 10.44378906 2.40666016 8.625 2.5625 C7.44164062 2.66691406 6.25828125 2.77132813 5.0390625 2.87890625 C2 3 2 3 0 2 C0 1.34 0 0.68 0 0 Z " fill="#4E445F" transform="translate(219,320)"/>
<path d="M0 0 C0.99 0 1.98 0 3 0 C3.33 0.66 3.66 1.32 4 2 C6.71446979 2.31241455 9.33909361 2.51336592 12.0625 2.625 C13.20041992 2.68300781 13.20041992 2.68300781 14.36132812 2.7421875 C16.24047195 2.83673562 18.12020336 2.91946756 20 3 C13.81486879 7.12342081 6.01538838 4.80550882 -0.91015625 3.4375 C-1.59980469 3.293125 -2.28945312 3.14875 -3 3 C-2.01 2.67 -1.02 2.34 0 2 C0 1.34 0 0.68 0 0 Z " fill="#D77D66" transform="translate(192,284)"/>
<path d="M0 0 C0.99 0.495 0.99 0.495 2 1 C2 1.66 2 2.32 2 3 C2.66 3 3.32 3 4 3 C9 8.47619048 9 8.47619048 9 11 C9.66 11 10.32 11 11 11 C11.66 12.32 12.32 13.64 13 15 C11.68 14.67 10.36 14.34 9 14 C9 13.34 9 12.68 9 12 C7.68 11.67 6.36 11.34 5 11 C5 10.01 5 9.02 5 8 C4.34 8 3.68 8 3 8 C0 2.25 0 2.25 0 0 Z " fill="#D47A69" transform="translate(196,207)"/>
<path d="M0 0 C3.320508 1.18589571 5.83878671 2.78451701 8.625 4.9375 C8.955 5.9275 9.285 6.9175 9.625 7.9375 C8.84125 7.669375 8.0575 7.40125 7.25 7.125 C2.73260831 5.64516479 -1.81770338 4.28847726 -6.375 2.9375 C-2.671875 -0.0703125 -2.671875 -0.0703125 0 0 Z " fill="#E5A14C" transform="translate(274.375,108.0625)"/>
<path d="M0 0 C1.2375 0.45375 2.475 0.9075 3.75 1.375 C9.38879287 3.2725842 15.12525178 4.15507005 21 5 C21 5.33 21 5.66 21 6 C15.06 6.495 15.06 6.495 9 7 C9 6.34 9 5.68 9 5 C8.071875 4.87625 7.14375 4.7525 6.1875 4.625 C3 4 3 4 0 2 C0 1.34 0 0.68 0 0 Z " fill="#C47667" transform="translate(232,276)"/>
<path d="M0 0 C2.475 0.495 2.475 0.495 5 1 C5 3.97 5 6.94 5 10 C3.68 10 2.36 10 1 10 C0.67 6.7 0.34 3.4 0 0 Z " fill="#E28E26" transform="translate(314,145)"/>
<path d="M0 0 C1.93166016 0.01740234 1.93166016 0.01740234 3.90234375 0.03515625 C5.19269531 0.04417969 6.48304688 0.05320312 7.8125 0.0625 C8.81152344 0.07410156 9.81054688 0.08570313 10.83984375 0.09765625 C10.50984375 0.75765625 10.17984375 1.41765625 9.83984375 2.09765625 C7.52984375 2.09765625 5.21984375 2.09765625 2.83984375 2.09765625 C2.50984375 3.08765625 2.17984375 4.07765625 1.83984375 5.09765625 C0.84984375 4.76765625 -0.14015625 4.43765625 -1.16015625 4.09765625 C-1.16015625 3.43765625 -1.16015625 2.77765625 -1.16015625 2.09765625 C-2.15015625 1.76765625 -3.14015625 1.43765625 -4.16015625 1.09765625 C-3.16015625 0.09765625 -3.16015625 0.09765625 0 0 Z " fill="#30283E" transform="translate(381.16015625,368.90234375)"/>
<path d="M0 0 C0.99 0.33 1.98 0.66 3 1 C3.33 1.99 3.66 2.98 4 4 C2.5625 6.1875 2.5625 6.1875 1 8 C-1.475 7.01 -1.475 7.01 -4 6 C-3.67 4.68 -3.34 3.36 -3 2 C-2.01 2 -1.02 2 0 2 C0 1.34 0 0.68 0 0 Z " fill="#DF6A51" transform="translate(174,273)"/>
<path d="M0 0 C0.33 0 0.66 0 1 0 C1 3.3 1 6.6 1 10 C-0.98 10.99 -0.98 10.99 -3 12 C-3.66 11.34 -4.32 10.68 -5 10 C-3.68 10 -2.36 10 -1 10 C-1.99 9.01 -2.98 8.02 -4 7 C-2.92598892 4.08482708 -2.22189824 2.22189824 0 0 Z " fill="#51485B" transform="translate(263,213)"/>
<path d="M0 0 C0.33 0.66 0.66 1.32 1 2 C0.649375 2.61875 0.29875 3.2375 -0.0625 3.875 C-0.5265625 4.926875 -0.5265625 4.926875 -1 6 C-0.21690533 8.23470405 -0.21690533 8.23470405 1 10 C-2.62326739 11.2077558 -3.64146369 10.54311128 -7 9 C-6.34 7.68 -5.68 6.36 -5 5 C-4.34 5 -3.68 5 -3 5 C-2.690625 4.360625 -2.38125 3.72125 -2.0625 3.0625 C-1 1 -1 1 0 0 Z " fill="#509792" transform="translate(158,107)"/>
<path d="M0 0 C3 2 3 2 3.73046875 5.4765625 C3.89648293 6.85780047 4.04831396 8.24080122 4.1875 9.625 C4.26935547 10.33140625 4.35121094 11.0378125 4.43554688 11.765625 C4.63580725 13.5090683 4.81949401 15.25440086 5 17 C4.34 17.33 3.68 17.66 3 18 C2.67 15.03 2.34 12.06 2 9 C1.34 9 0.68 9 0 9 C0 6.03 0 3.06 0 0 Z " fill="#D1755F" transform="translate(217,246)"/>
<path d="M0 0 C0.33 0 0.66 0 1 0 C1.33 2.31 1.66 4.62 2 7 C8.6 7 15.2 7 22 7 C22 7.33 22 7.66 22 8 C14.41 8.33 6.82 8.66 -1 9 C-0.67 6.03 -0.34 3.06 0 0 Z " fill="#E49445" transform="translate(317,177)"/>
<path d="M0 0 C0.66 0 1.32 0 2 0 C2.125 6.75 2.125 6.75 1 9 C0.34 9 -0.32 9 -1 9 C-1.33 9.66 -1.66 10.32 -2 11 C-2.92817192 7.37169157 -3.26901295 5.58926645 -1.6875 2.125 C-0.8521875 1.073125 -0.8521875 1.073125 0 0 Z " fill="#9B3861" transform="translate(363,226)"/>
<path d="M0 0 C2.31 0.33 4.62 0.66 7 1 C7 2.32 7 3.64 7 5 C7.99 5.33 8.98 5.66 10 6 C9.34 6.66 8.68 7.32 8 8 C5.03 6.02 2.06 4.04 -1 2 C-0.67 1.34 -0.34 0.68 0 0 Z " fill="#E19F49" transform="translate(286,115)"/>
<path d="M0 0 C1 3 1 3 -0.4375 6.1875 C-1.2109375 7.5796875 -1.2109375 7.5796875 -2 9 C-2.66 9 -3.32 9 -4 9 C-4 9.66 -4 10.32 -4 11 C-4.66 11 -5.32 11 -6 11 C-6 11.66 -6 12.32 -6 13 C-5.34 13.33 -4.68 13.66 -4 14 C-5.32 14.33 -6.64 14.66 -8 15 C-6.51194289 9.19657726 -3.40902445 4.82409121 0 0 Z " fill="#675D6E" transform="translate(217,140)"/>
<path d="M0 0 C3.32368224 1.10789408 3.61563093 1.48436217 5.25 4.375 C5.60578125 4.98085938 5.9615625 5.58671875 6.328125 6.2109375 C7 8 7 8 6 11 C4.68 10.67 3.36 10.34 2 10 C1.855625 8.906875 1.71125 7.81375 1.5625 6.6875 C1.11711896 3.06877013 1.11711896 3.06877013 0 0 Z " fill="#574E60" transform="translate(202,385)"/>
<path d="M0 0 C0.99 0 1.98 0 3 0 C2.43416161 3.28186266 1.58727596 4.89184922 -1 7 C-3.1875 8.1875 -3.1875 8.1875 -5 9 C-5 6 -5 6 -3 3 C-2.34 3 -1.68 3 -1 3 C-0.67 2.01 -0.34 1.02 0 0 Z " fill="#4A4253" transform="translate(247,191)"/>
<path d="M0 0 C0 0.66 0 1.32 0 2 C0.99 2.33 1.98 2.66 3 3 C0.36 4.65 -2.28 6.3 -5 8 C-6 6 -6 6 -5.1875 3.4375 C-3.79322886 0.57557503 -3.17112511 0 0 0 Z " fill="#4B9491" transform="translate(216,114)"/>
<path d="M0 0 C0.66 0 1.32 0 2 0 C2.77916092 5.02125926 3.13016601 8.97703996 2 14 C1.67 14 1.34 14 1 14 C1 12.02 1 10.04 1 8 C-0.32 7.67 -1.64 7.34 -3 7 C-2.01 4.69 -1.02 2.38 0 0 Z " fill="#685F73" transform="translate(205,339)"/>
<path d="M0 0 C-0.66 2.31 -1.32 4.62 -2 7 C-2.99 6.67 -3.98 6.34 -5 6 C-5.33 4.02 -5.66 2.04 -6 0 C-2.25 -1.125 -2.25 -1.125 0 0 Z " fill="#423A50" transform="translate(271,383)"/>
<path d="M0 0 C2.31 0.66 4.62 1.32 7 2 C7.33 1.34 7.66 0.68 8 0 C8.33 0.66 8.66 1.32 9 2 C12.02934491 2.65772428 12.02934491 2.65772428 15 3 C14.67 3.66 14.34 4.32 14 5 C7.88225104 5.49940808 4.97504047 4.24900602 0 1 C0 0.67 0 0.34 0 0 Z " fill="#AC5F7D" transform="translate(319,304)"/>
<path d="M0 0 C-0.66 1.65 -1.32 3.3 -2 5 C-3.32 5 -4.64 5 -6 5 C-6 4.34 -6 3.68 -6 3 C-6.99 3 -7.98 3 -9 3 C-9 2.34 -9 1.68 -9 1 C-2.25 -1.125 -2.25 -1.125 0 0 Z " fill="#A65071" transform="translate(265,279)"/>
<path d="M0 0 C0.66 0 1.32 0 2 0 C2.99 3.96 3.98 7.92 5 12 C2 11 2 11 1.015625 9.2578125 C0.76296875 8.55398438 0.5103125 7.85015625 0.25 7.125 C-0.01296875 6.42632812 -0.2759375 5.72765625 -0.546875 5.0078125 C-1 3 -1 3 0 0 Z " fill="#4D4356" transform="translate(265,330)"/>
<path d="M0 0 C7.59 0 15.18 0 23 0 C23 0.33 23 0.66 23 1 C22.40985107 1.02505615 21.81970215 1.0501123 21.21166992 1.07592773 C18.53673186 1.19200052 15.8621362 1.31467572 13.1875 1.4375 C11.7943457 1.49647461 11.7943457 1.49647461 10.37304688 1.55664062 C9.0340332 1.61948242 9.0340332 1.61948242 7.66796875 1.68359375 C6.84578857 1.72025146 6.0236084 1.75690918 5.17651367 1.79467773 C2.82094822 1.93427772 2.82094822 1.93427772 0 3 C0 2.01 0 1.02 0 0 Z " fill="#2A223E" transform="translate(150,321)"/>
<path d="M0 0 C1.32 0.33 2.64 0.66 4 1 C4 1.99 4 2.98 4 4 C5.32 4.33 6.64 4.66 8 5 C7.67 5.99 7.34 6.98 7 8 C3.76912579 7.44295272 1.97638863 6.66812465 0 4 C0 2.68 0 1.36 0 0 Z " fill="#4B4457" transform="translate(237,255)"/>
<path d="M0 0 C-0.33 0.99 -0.66 1.98 -1 3 C-5.29 2.67 -9.58 2.34 -14 2 C-14 1.67 -14 1.34 -14 1 C-12.23103898 0.63659714 -10.45973374 0.28459117 -8.6875 -0.0625 C-7.70136719 -0.25972656 -6.71523438 -0.45695312 -5.69921875 -0.66015625 C-3 -1 -3 -1 0 0 Z " fill="#E4A44E" transform="translate(269,107)"/>
<path d="M0 0 C3.3 0 6.6 0 10 0 C10.33 0.99 10.66 1.98 11 3 C8.83032311 3.95465783 7.43671207 4.14401212 5.17578125 3.3984375 C3.4315257 2.64129615 1.71372869 1.82390802 0 1 C0 0.67 0 0.34 0 0 Z " fill="#DD725E" transform="translate(178,282)"/>
<path d="M0 0 C0.99 0 1.98 0 3 0 C1.55746343 3.36591866 -0.33264727 5.51047079 -3 8 C-3 6.68 -3 5.36 -3 4 C-3.66 4 -4.32 4 -5 4 C-5 3.34 -5 2.68 -5 2 C-4.360625 1.855625 -3.72125 1.71125 -3.0625 1.5625 C-1.02454854 1.18992819 -1.02454854 1.18992819 0 0 Z " fill="#534B5D" transform="translate(270,200)"/>
<path d="M0 0 C4.29 0 8.58 0 13 0 C9 3 9 3 6.640625 3.07421875 C5.85171875 2.94660156 5.0628125 2.81898438 4.25 2.6875 C3.45078125 2.56761719 2.6515625 2.44773437 1.828125 2.32421875 C1.22484375 2.21722656 0.6215625 2.11023438 0 2 C0 1.34 0 0.68 0 0 Z " fill="#534B5D" transform="translate(170,355)"/>
<path d="M0 0 C0.33 0.99 0.66 1.98 1 3 C1.66 3 2.32 3 3 3 C4.5625 5.8125 4.5625 5.8125 6 9 C5.67 9.99 5.34 10.98 5 12 C4.34 12 3.68 12 3 12 C2.67 9.69 2.34 7.38 2 5 C1.34 5 0.68 5 0 5 C0 3.35 0 1.7 0 0 Z " fill="#CC6B5A" transform="translate(187,191)"/>
<path d="M0 0 C1.87939453 -0.34057617 1.87939453 -0.34057617 4.1328125 -0.29296875 C4.93847656 -0.28330078 5.74414062 -0.27363281 6.57421875 -0.26367188 C7.41597656 -0.23853516 8.25773438 -0.21339844 9.125 -0.1875 C9.97449219 -0.17396484 10.82398438 -0.16042969 11.69921875 -0.14648438 C13.79974837 -0.11108219 15.89995293 -0.05727401 18 0 C18 0.33 18 0.66 18 1 C16.58847656 1.09087891 16.58847656 1.09087891 15.1484375 1.18359375 C13.90320313 1.26738281 12.65796875 1.35117188 11.375 1.4375 C10.14523438 1.51871094 8.91546875 1.59992188 7.6484375 1.68359375 C4.38467612 1.96663944 1.22056141 2.41038953 -2 3 C-1.34 2.01 -0.68 1.02 0 0 Z " fill="#95B9B3" transform="translate(234,108)"/>
<path d="M0 0 C-0.99 1.485 -0.99 1.485 -2 3 C-3.32 2.67 -4.64 2.34 -6 2 C-6.33 2.66 -6.66 3.32 -7 4 C-8.32 3.34 -9.64 2.68 -11 2 C-3.57142857 -1.57142857 -3.57142857 -1.57142857 0 0 Z " fill="#585163" transform="translate(241,129)"/>
<path d="M0 0 C1.0546875 1.8359375 1.0546875 1.8359375 2 4 C1.125 6.625 1.125 6.625 0 9 C0 9.66 0 10.32 0 11 C-0.99 11.495 -0.99 11.495 -2 12 C-2.66 12.99 -3.32 13.98 -4 15 C-3.34728444 11.48294042 -2.48606976 8.10674923 -1.4375 4.6875 C-1.16808594 3.80449219 -0.89867187 2.92148437 -0.62109375 2.01171875 C-0.41613281 1.34785156 -0.21117187 0.68398438 0 0 Z " fill="#786E7D" transform="translate(354,377)"/>
<path d="M0 0 C0.99 0 1.98 0 3 0 C2.67 1.98 2.34 3.96 2 6 C1.34 6 0.68 6 0 6 C0 6.66 0 7.32 0 8 C-0.99 8.33 -1.98 8.66 -3 9 C-2.01 6.03 -1.02 3.06 0 0 Z " fill="#534A5E" transform="translate(372,326)"/>
<path d="M0 0 C3.91402949 1.26941497 5.79072873 2.51167694 8 6 C7.67 6.66 7.34 7.32 7 8 C4.625 7.375 4.625 7.375 2 6 C0.6875 2.875 0.6875 2.875 0 0 Z " fill="#695F72" transform="translate(257,237)"/>
<path d="M0 0 C0.33 0 0.66 0 1 0 C1 3.3 1 6.6 1 10 C0.67 10 0.34 10 0 10 C0 8.35 0 6.7 0 5 C-1.32 5.33 -2.64 5.66 -4 6 C-3.67 4.68 -3.34 3.36 -3 2 C-2.01 2 -1.02 2 0 2 C0 1.34 0 0.68 0 0 Z " fill="#3C324B" transform="translate(341,321)"/>
<path d="M0 0 C6.52307692 1.35384615 6.52307692 1.35384615 8.9375 4.625 C9.288125 5.40875 9.63875 6.1925 10 7 C3.29090909 4.39090909 3.29090909 4.39090909 1 3 C0.67 2.01 0.34 1.02 0 0 Z " fill="#A65270" transform="translate(297,290)"/>
<path d="M0 0 C3.96 0.33 7.92 0.66 12 1 C12 1.33 12 1.66 12 2 C11.09507812 2.09087891 11.09507812 2.09087891 10.171875 2.18359375 C8.97304687 2.30927734 8.97304687 2.30927734 7.75 2.4375 C6.96109375 2.51871094 6.1721875 2.59992188 5.359375 2.68359375 C3.17635361 2.97634993 1.1226818 3.42064419 -1 4 C-0.67 2.68 -0.34 1.36 0 0 Z " fill="#77707E" transform="translate(242,150)"/>
<path d="M0 0 C2.475 0.99 2.475 0.99 5 2 C5.33 4.97 5.66 7.94 6 11 C3.13546142 7.58983503 1.65296434 4.09305456 0 0 Z " fill="#DBA45D" transform="translate(308,138)"/>
<path d="M0 0 C4.56454251 0.54339792 7.9728176 1.79463821 12 4 C11.34 4.66 10.68 5.32 10 6 C10 5.34 10 4.68 10 4 C9.0925 4.0825 8.185 4.165 7.25 4.25 C4 4 4 4 1.625 2 C0.820625 1.01 0.820625 1.01 0 0 Z " fill="#E8A863" transform="translate(312,90)"/>
<path d="M0 0 C1.90318884 2.85478326 2.4619099 4.41941308 3.125 7.6875 C3.29257812 8.49574219 3.46015625 9.30398438 3.6328125 10.13671875 C3.75398438 10.75160156 3.87515625 11.36648438 4 12 C-0.875 7.25 -0.875 7.25 -2 5 C-1.34 4.67 -0.68 4.34 0 4 C0 2.68 0 1.36 0 0 Z " fill="#736C7B" transform="translate(414,374)"/>
<path d="M0 0 C2.35953094 2.35953094 2.49141413 3.77895617 3 7 C1.35 7 -0.3 7 -2 7 C-2 5.02 -2 3.04 -2 1 C-1.34 0.67 -0.68 0.34 0 0 Z " fill="#2E243E" transform="translate(412,372)"/>
<path d="M0 0 C1.52453435 2.94017338 2.95157395 5.85472185 4 9 C3.67 9.99 3.34 10.98 3 12 C2.01 11.34 1.02 10.68 0 10 C0 9.34 0 8.68 0 8 C-0.33 7.01 -0.66 6.02 -1 5 C-0.5625 2.3125 -0.5625 2.3125 0 0 Z " fill="#6E6376" transform="translate(410,362)"/>
<path d="M0 0 C0.66 0.66 1.32 1.32 2 2 C1.625 4.625 1.625 4.625 1 7 C-0.65 7.33 -2.3 7.66 -4 8 C-2.68 5.36 -1.36 2.72 0 0 Z " fill="#A75875" transform="translate(280,263)"/>
<path d="M0 0 C2.97 1.65 5.94 3.3 9 5 C8.67 5.66 8.34 6.32 8 7 C4.5625 5.75 4.5625 5.75 1 4 C0.67 2.68 0.34 1.36 0 0 Z " fill="#E9AF5C" transform="translate(329,97)"/>
<path d="M0 0 C1.98 0 3.96 0 6 0 C5.67 1.98 5.34 3.96 5 6 C4.34 6 3.68 6 3 6 C2.01 4.02 1.02 2.04 0 0 Z " fill="#4D455B" transform="translate(290,380)"/>
<path d="M0 0 C0 0.99 0 1.98 0 3 C-0.99 3 -1.98 3 -3 3 C-3 3.66 -3 4.32 -3 5 C-4.65 5.33 -6.3 5.66 -8 6 C-3.38461538 0 -3.38461538 0 0 0 Z " fill="#5C5564" transform="translate(245,237)"/>
<path d="M0 0 C2 1.3125 2 1.3125 4 3 C4 3.99 4 4.98 4 6 C2.02 6 0.04 6 -2 6 C-1.49396008 3.83125748 -1.00016187 2.00032373 0 0 Z " fill="#A7486D" transform="translate(299,214)"/>
<path d="M0 0 C0.99 0 1.98 0 3 0 C2.1875 2.9375 2.1875 2.9375 1 6 C0.01 6.33 -0.98 6.66 -2 7 C-1.125 1.125 -1.125 1.125 0 0 Z " fill="#473D51" transform="translate(265,173)"/>
<path d="M0 0 C1.17539996 0.92652701 2.34010577 1.86663387 3.5 2.8125 C4.1496875 3.33457031 4.799375 3.85664062 5.46875 4.39453125 C7 6 7 6 7 9 C0.70535714 4.17857143 0.70535714 4.17857143 0 0 Z " fill="#E6A856" transform="translate(339,104)"/>
<path d="M0 0 C0.99 0.33 1.98 0.66 3 1 C2.34 2.98 1.68 4.96 1 7 C0.34 7 -0.32 7 -1 7 C-1 5.68 -1 4.36 -1 3 C-1.66 2.67 -2.32 2.34 -3 2 C-2.01 1.34 -1.02 0.68 0 0 Z " fill="#2D243F" transform="translate(188,388)"/>
<path d="M0 0 C0.66 0 1.32 0 2 0 C2.53012738 1.28788008 3.0488329 2.58046678 3.5625 3.875 C3.99755859 4.95394531 3.99755859 4.95394531 4.44140625 6.0546875 C5 8 5 8 4 10 C1.80902348 6.6659053 0.56545837 3.95820859 0 0 Z " fill="#544D5C" transform="translate(250,340)"/>
<path d="M0 0 C3 3 3 3 3.1875 5.6875 C3.0946875 6.8321875 3.0946875 6.8321875 3 8 C2.34 8 1.68 8 1 8 C0.67 8.66 0.34 9.32 0 10 C0 6.7 0 3.4 0 0 Z " fill="#231933" transform="translate(267,162)"/>
<path d="M0 0 C1.20628008 2.33214148 2.1654738 4.49642139 3 7 C2.34 7.66 1.68 8.32 1 9 C-0.32 6.36 -1.64 3.72 -3 1 C-2.01 0.67 -1.02 0.34 0 0 Z " fill="#534A5C" transform="translate(178,371)"/>
<path d="M0 0 C2 1.375 2 1.375 4 3 C4 3.66 4 4.32 4 5 C3.34 5 2.68 5 2 5 C1.67 5.99 1.34 6.98 1 8 C0.34 7.34 -0.32 6.68 -1 6 C-0.625 2.875 -0.625 2.875 0 0 Z " fill="#302640" transform="translate(282,367)"/>
<path d="M0 0 C1.1875 1.5 1.1875 1.5 2 4 C1.27101296 6.78824238 0.1843275 9.37665092 -1 12 C-1.33 12 -1.66 12 -2 12 C-2.21278058 7.53160785 -1.59138085 4.17737474 0 0 Z " fill="#605769" transform="translate(285,354)"/>
<path d="M0 0 C0.66 0 1.32 0 2 0 C4.42857143 6.28571429 4.42857143 6.28571429 3 10 C3 9.01 3 8.02 3 7 C2.34 7 1.68 7 1 7 C0.67 4.69 0.34 2.38 0 0 Z " fill="#D98470" transform="translate(215,235)"/>
<path d="M0 0 C0.33 0 0.66 0 1 0 C3.42857143 7.42857143 3.42857143 7.42857143 2 11 C-0.26881841 7.91440696 -1.05451946 6.57790624 -0.6875 2.6875 C-0.460625 1.800625 -0.23375 0.91375 0 0 Z " fill="#BC7C6E" transform="translate(186,183)"/>
<path d="M0 0 C1.32 0 2.64 0 4 0 C4 0.99 4 1.98 4 3 C2.02 3.33 0.04 3.66 -2 4 C-2 3.34 -2 2.68 -2 2 C-1.34 2 -0.68 2 0 2 C0 1.34 0 0.68 0 0 Z " fill="#2E2343" transform="translate(267,379)"/>
<path d="M0 0 C0.66 0 1.32 0 2 0 C3.125 4.75 3.125 4.75 2 7 C1.34 7 0.68 7 0 7 C-0.38133299 5.0085944 -0.71325582 3.00720923 -1 1 C-0.67 0.67 -0.34 0.34 0 0 Z " fill="#493F55" transform="translate(203,350)"/>
<path d="M0 0 C0.99 0.33 1.98 0.66 3 1 C3.6875 3.0625 3.6875 3.0625 4 5 C3.01 5.33 2.02 5.66 1 6 C0.34 4.35 -0.32 2.7 -1 1 C-0.67 0.67 -0.34 0.34 0 0 Z " fill="#53495C" transform="translate(393,321)"/>
<path d="M0 0 C1.98 0 3.96 0 6 0 C6 1.32 6 2.64 6 4 C4.35 3.67 2.7 3.34 1 3 C0.67 2.01 0.34 1.02 0 0 Z " fill="#D9725F" transform="translate(165,274)"/>
<path d="M0 0 C0.99 0.33 1.98 0.66 3 1 C1.35 3.64 -0.3 6.28 -2 9 C-2.33 7.68 -2.66 6.36 -3 5 C-2.34 5 -1.68 5 -1 5 C-0.67 3.35 -0.34 1.7 0 0 Z " fill="#B56F89" transform="translate(355,251)"/>
<path d="M0 0 C0.66 0 1.32 0 2 0 C1.34 2.64 0.68 5.28 0 8 C-0.33 7.34 -0.66 6.68 -1 6 C-1.66 6 -2.32 6 -3 6 C-2 4 -1 2 0 0 Z " fill="#A64C70" transform="translate(362,235)"/>
<path d="M0 0 C2.32472205 2.85306797 3.7508258 5.54074837 5 9 C3.68 8.67 2.36 8.34 1 8 C0.67 5.36 0.34 2.72 0 0 Z " fill="#D48271" transform="translate(210,223)"/>
<path d="M0 0 C0.625 1.8125 0.625 1.8125 1 4 C0.01 5.485 0.01 5.485 -1 7 C-2.32 6.67 -3.64 6.34 -5 6 C-3.35 4.02 -1.7 2.04 0 0 Z " fill="#AF6581" transform="translate(305,207)"/>
<path d="M0 0 C0.66 0 1.32 0 2 0 C2 2.31 2 4.62 2 7 C1.01 7.33 0.02 7.66 -1 8 C-0.67 5.36 -0.34 2.72 0 0 Z " fill="#9E4D6A" transform="translate(315,187)"/>
<path d="M0 0 C0.33 0.99 0.66 1.98 1 3 C-1.64 3.33 -4.28 3.66 -7 4 C-7 3.34 -7 2.68 -7 2 C-4.69 1.34 -2.38 0.68 0 0 Z " fill="#5C5662" transform="translate(420,393)"/>
<path d="M0 0 C0.66 0 1.32 0 2 0 C1.38722388 2.96175123 0.74627478 4.38058783 -1 7 C-1.66 7 -2.32 7 -3 7 C-1.125 1.125 -1.125 1.125 0 0 Z " fill="#AB5B7B" transform="translate(292,224)"/>
<path d="M0 0 C0.99 0.33 1.98 0.66 3 1 C1.70700306 3.88437779 0.34058637 5.87219421 -2 8 C-2 6.68 -2 5.36 -2 4 C-1.34 4 -0.68 4 0 4 C0 2.68 0 1.36 0 0 Z " fill="#605867" transform="translate(288,182)"/>
<path d="M0 0 C0.99 0.33 1.98 0.66 3 1 C2.34 2.32 1.68 3.64 1 5 C0.01 5 -0.98 5 -2 5 C-1.125 1.125 -1.125 1.125 0 0 Z " fill="#3C3347" transform="translate(262,178)"/>
<path d="M0 0 C2.4294516 3.6441774 2.16179575 5.71241272 2 10 C-0.58787727 7.41212273 -0.62709152 5.57992139 -1 2 C-0.67 1.34 -0.34 0.68 0 0 Z " fill="#605067" transform="translate(293,154)"/>
<path d="M0 0 C0.33 0.66 0.66 1.32 1 2 C0.06421005 4.35981813 -0.93347808 6.69631264 -2 9 C-2.66 9 -3.32 9 -4 9 C-2.80100302 5.9168649 -1.52299523 2.93720508 0 0 Z " fill="#5E9C94" transform="translate(146,122)"/>
</svg>
